<svg width="17" height="26" viewBox="0 0 17 26" fill="none" xmlns="http://www.w3.org/2000/svg">
<path d="M8.00012 5C9.05069 5 10.091 5.20693 11.0616 5.60896C12.0322 6.011 12.9141 6.60028 13.657 7.34315C14.3998 8.08602 14.9891 8.96793 15.3912 9.93853C15.7932 10.9091 16.0001 11.9494 16.0001 13C16.0001 14.0506 15.7932 15.0909 15.3912 16.0615C14.9891 17.0321 14.3998 17.914 13.657 18.6569C12.9141 19.3997 12.0322 19.989 11.0616 20.391C10.091 20.7931 9.05069 21 8.00012 21C6.94954 21 5.90925 20.7931 4.93865 20.391C3.96804 19.989 3.08613 19.3997 2.34326 18.6569" stroke="black" stroke-opacity="0.38" stroke-width="2" stroke-linecap="square" stroke-linejoin="round"/>
</svg>
